<?xml version="1.0" encoding="utf-8" standalone="yes"?>
<!DOCTYPE svg PUBLIC "-//W3C//DTD SVG 1.1//EN" "http://www.w3.org/Graphics/SVG/1.1/DTD/svg11.dtd">
<svg xmlns="http://www.w3.org/2000/svg" xmlns:xlink="http://www.w3.org/1999/xlink" xmlns:dc="http://purl.org/dc/elements/1.1/" xmlns:cc="http://web.resource.org/cc/" xmlns:rdf="http://www.w3.org/1999/02/22-rdf-syntax-ns#" xmlns:sodipodi="http://sodipodi.sourceforge.net/DTD/sodipodi-0.dtd" xmlns:inkscape="http://www.inkscape.org/namespaces/inkscape" version="1.1" baseProfile="full" width="340px" height="65px" viewBox="0 0 340 65" preserveAspectRatio="xMidYMid meet" id="svg_document" style="zoom: 1;" visibility="visible"><title id="svg_document_title">Untitled.svg</title><defs id="svg_document_defs"></defs><g id="main_group"></g><svg xmlns="http://www.w3.org/2000/svg" xmlns:xlink="http://www.w3.org/1999/xlink" xmlns:dc="http://purl.org/dc/elements/1.1/" xmlns:cc="http://web.resource.org/cc/" xmlns:rdf="http://www.w3.org/1999/02/22-rdf-syntax-ns#" xmlns:sodipodi="http://sodipodi.sourceforge.net/DTD/sodipodi-0.dtd" xmlns:inkscape="http://www.inkscape.org/namespaces/inkscape" height="500px" style="zoom: 1;" cursor="default" id="svg_document" width="500px" baseProfile="full" version="1.1" preserveAspectRatio="xMidYMid meet" viewBox="0 0 500 500"><title id="svg_document_title">Untitled.svg</title><defs id="svg_document_defs"></defs><g id="main_group"></g><svg xmlns="http://www.w3.org/2000/svg" xmlns:xlink="http://www.w3.org/1999/xlink" height="841.891px" x="0px" y="0px" id="Layer_1" width="595.279px" xml:space="preserve" version="1.1" enable-background="new 0 0 595.279 841.891" viewBox="0 0 595.279 841.891"><g><g><path d="M2.879028,26.471008 v3.527 c0,3.664 4.18,4.525 8.204,5.355 l2.763,0.592 c3.238,0.733 4.489,1.039 4.854,1.463 v3.479 c-1.183,1.232 -3.298,2.683 -6.968,2.683 c-2.685,0 -5.07,-0.375 -7.301,-1.165 c-0.008,0 -0.723,-0.252 -0.723,-0.252 v4.253 l0.342,0.128 c1.968,0.788 4.772,1.245 7.682,1.245 c4.312,0 11.159,-1.893 11.159,-7.001 V37.200012 c0,-3.672 -4.188,-4.525 -8.233,-5.378 c-0.004,0 -2.058,-0.426 -2.747,-0.579 c-3.194,-0.729 -4.415,-1.024 -4.767,-1.452 v-3.425 c1.536,-1.738 3.99,-2.708 6.95,-2.708 c2.673,0 5.072,0.388 7.317,1.185 l0.706,0.251 v-4.251 l-0.331,-0.125 c-1.951,-0.794 -4.829,-1.251 -7.692,-1.251 C9.761963,19.466003 2.879028,21.367004 2.879028,26.471008 " id="Fill-13_2_" fill="#34355A"></path></g><g><path d="M75.858032,47.778992 c-0.54,-0.697 -12.014,-16.798 -12.014,-16.798 l9.388,-8.231 l-2.697,-2.998 c-8.762,7.68 -13.857,12.146 -13.857,12.146 v-24.171 h-4.198 v40.051 h4.198 v-10.558 l4.002,-3.473 c0,0 9.889,13.856 10.019,14.03 H75.858032 " id="Fill-41_2_" fill="#34355A"></path></g><g><path d="M109.873047,40.999023 l-0.002,-0.067 v-14.5 c1.614,-1.868 4.008,-2.76 6.928,-2.76 c2.94,0 5.319,0.897 6.854,2.607 l0.061,14.567 c-1.158,1.335 -3.266,2.75 -6.914,2.75 C113.18103,43.596008 111.033936,42.18103 109.873047,40.999023 M105.551025,26.43103 v14.415 c0.029,5.054 6.909,6.934 11.248,6.934 s11.216,-1.88 11.245,-6.934 v-14.415 c-0.029,-5.062 -6.906,-6.953 -11.245,-6.953 S105.580078,21.369019 105.551025,26.43103 " id="Fill-40_2_" fill="#34355A"></path></g><g><polygon points="251.501953,47.778992 255.713989,47.778992 255.713989,7.749023 251.501953,7.749023 " id="Fill-27_3_" fill="#34355A"></polygon></g><g><g><path d="M83.780029,40.999023 l-0.002,-0.067 v-14.5 c1.614,-1.868 4.008,-2.76 6.928,-2.76 c2.94,0 5.319,0.897 6.854,2.607 l0.061,14.567 c-1.158,1.335 -3.266,2.75 -6.914,2.75 C87.088013,43.596008 84.940918,42.18103 83.780029,40.999023 M79.458008,26.43103 v14.415 c0.029,5.054 6.909,6.934 11.248,6.934 s11.216,-1.88 11.245,-6.934 v-14.415 c-0.029,-5.062 -6.906,-6.953 -11.245,-6.953 S79.487061,21.369019 79.458008,26.43103 " id="Fill-40_3_" fill="#34355A"></path></g><g><polygon points="97.735962,47.778992 101.950928,47.778992 101.950928,7.721985 97.735962,7.721985 " id="Fill-27_1_" fill="#34355A"></polygon></g></g><g><g><path d="M217.592041,26.245972 l0.002,0.067 v14.5 c-1.614,1.868 -4.008,2.76 -6.928,2.76 c-2.94,0 -5.319,-0.897 -6.854,-2.607 l-0.061,-14.567 c1.158,-1.335 3.266,-2.75 6.914,-2.75 C214.283936,23.648987 216.43103,25.063965 217.592041,26.245972 M221.914062,40.813965 v-14.415 c-0.029,-5.054 -6.909,-6.934 -11.248,-6.934 s-11.216,1.88 -11.245,6.934 v14.415 c0.029,5.062 6.906,6.953 11.245,6.953 S221.88501,45.875977 221.914062,40.813965 " id="Fill-40_4_" fill="#34355A"></path></g><g><polygon points="203.635986,19.466003 199.421021,19.466003 199.421021,59.52301 203.635986,59.52301 " id="Fill-27_4_" fill="#34355A"></polygon></g></g><g><g><path d="M131.644043,26.937988 v20.841 h4.213 v-20.941 c1.605,-1.758 4.024,-2.712 7.012,-2.712 c2.951,0 5.408,0.971 6.951,2.708 v20.945 h4.213 v-20.841 c0,-5.104 -6.854,-7.005 -11.164,-7.005 C138.348999,19.934021 131.644043,21.801025 131.644043,26.937988 " id="Fill-15_2_" fill="#34355A"></path></g><g><path d="M149.820068,26.937988 v20.841 h4.213 v-20.941 c1.605,-1.758 4.025,-2.712 7.012,-2.712 c2.951,0 5.408,0.971 6.951,2.708 v20.945 h4.213 v-20.841 c0,-5.104 -6.854,-7.005 -11.164,-7.005 C156.525024,19.934021 149.820068,21.801025 149.820068,26.937988 " id="Fill-15_3_" fill="#34355A"></path></g></g><g><path d="M308.948975,26.937988 v20.841 h4.213 v-20.941 c1.605,-1.758 4.024,-2.712 7.012,-2.712 c2.951,0 5.407,0.971 6.95,2.708 v20.945 h4.213 v-20.841 c0,-5.104 -6.854,-7.005 -11.163,-7.005 C315.655029,19.934021 308.948975,21.801025 308.948975,26.937988 " id="Fill-15_4_" fill="#34355A"></path></g><g><path d="M247.901978,40.773987 v-20.841 h-4.213 v20.941 c-1.605,1.758 -4.024,2.712 -7.012,2.712 c-2.951,0 -5.407,-0.971 -6.95,-2.708 v-20.945 h-4.213 v20.841 c0,5.104 6.854,7.005 11.163,7.005 C241.197021,47.778992 247.901978,45.911987 247.901978,40.773987 " id="Fill-15_5_" fill="#34355A"></path></g><g><path d="M175.807983,26.471008 v3.527 c0,3.664 4.18,4.525 8.203,5.355 l2.763,0.592 c3.238,0.733 4.49,1.039 4.855,1.463 v3.479 c-1.184,1.232 -3.299,2.683 -6.968,2.683 c-2.686,0 -5.07,-0.375 -7.301,-1.165 c-0.008,0 -0.723,-0.252 -0.723,-0.252 v4.253 l0.342,0.128 c1.967,0.788 4.771,1.245 7.682,1.245 c4.312,0 11.159,-1.893 11.159,-7.001 V37.200012 c0,-3.672 -4.188,-4.525 -8.234,-5.378 c-0.004,0 -2.058,-0.426 -2.747,-0.579 c-3.193,-0.729 -4.414,-1.024 -4.766,-1.452 v-3.425 c1.535,-1.738 3.99,-2.708 6.95,-2.708 c2.672,0 5.072,0.388 7.316,1.185 l0.707,0.251 v-4.251 l-0.332,-0.125 c-1.951,-0.794 -4.828,-1.251 -7.691,-1.251 C182.69104,19.466003 175.807983,21.367004 175.807983,26.471008 " id="Fill-13_3_" fill="#34355A"></path></g><g><path d="M259.313965,26.471008 v3.527 c0,3.664 4.18,4.525 8.204,5.355 l2.763,0.592 c3.238,0.733 4.49,1.039 4.855,1.463 v3.479 c-1.184,1.232 -3.299,2.683 -6.969,2.683 c-2.685,0 -5.07,-0.375 -7.301,-1.165 c-0.008,0 -0.723,-0.252 -0.723,-0.252 v4.253 l0.342,0.128 c1.968,0.788 4.772,1.245 7.682,1.245 c4.312,0 11.16,-1.893 11.16,-7.001 V37.200012 c0,-3.672 -4.188,-4.525 -8.234,-5.378 c-0.004,0 -2.058,-0.426 -2.747,-0.579 c-3.194,-0.729 -4.415,-1.024 -4.767,-1.452 v-3.425 c1.536,-1.738 3.99,-2.708 6.951,-2.708 c2.672,0 5.072,0.388 7.316,1.185 l0.707,0.251 v-4.251 l-0.332,-0.125 c-1.951,-0.794 -4.828,-1.251 -7.691,-1.251 C266.197998,19.466003 259.313965,21.367004 259.313965,26.471008 " id="Fill-13_4_" fill="#34355A"></path></g><g><path d="M294.125977,23.65802 c2.972,0 5.429,0.971 6.965,2.708 v5.131 h-13.959 v-5.126 C288.734985,24.612 291.154053,23.65802 294.125977,23.65802 M282.927002,26.471008 v14.308 c0,5.14 6.699,7 11.199,7 c3.518,0 6.722,-0.375 8.786,-1.054 l0.195,-0.051 v-4.156 l-0.423,0.157 c-1.279,0.434 -4.492,0.896 -8.559,0.896 c-2.938,0 -5.352,-0.939 -6.994,-2.698 v-5.125 h18.217 v-9.277 c0,-5.104 -6.884,-7.005 -11.223,-7.005 C289.625977,19.466003 282.927002,21.333984 282.927002,26.471008 " id="Fill-21_2_" fill="#34355A"></path></g><g><g><path d="M48.879028,40.307007 v-20.841 h-4.213 v20.941 c-1.605,1.758 -4.024,2.713 -7.012,2.713 c-2.951,0 -5.407,-0.971 -6.95,-2.709 v-20.945 h-4.213 v20.841 c0,5.104 6.854,7.005 11.163,7.005 C42.174072,47.312012 48.879028,45.44397 48.879028,40.307007 " id="Fill-15_6_" fill="#34355A"></path></g><g><polygon points="44.666992,59.495972 48.879028,59.495972 48.879028,19.466003 44.666992,19.466003 " id="Fill-27_5_" fill="#34355A"></polygon></g></g></g></svg></svg></svg>